<?xml version="1.0" standalone="no"?>
<!DOCTYPE svg PUBLIC "-//W3C//DTD SVG 20010904//EN"
 "http://www.w3.org/TR/2001/REC-SVG-20010904/DTD/svg10.dtd">
<svg version="1.0" xmlns="http://www.w3.org/2000/svg"
 width="150.000000pt" height="150.000000pt" viewBox="0 0 150.000000 150.000000"
 preserveAspectRatio="xMidYMid meet">
<metadata>
Created by potrace 1.11, written by Peter Selinger 2001-2013
</metadata>
<g transform="translate(0.000000,150.000000) scale(0.100000,-0.100000)"
fill="#000000" stroke="none">
<path d="M805 1329 c-24 -33 -51 -76 -60 -97 l-17 -38 -34 33 c-37 35 -65 43
-180 52 -5 1 -20 10 -32 21 -25 23 -29 11 -13 -33 22 -57 66 -81 186 -103 l40
-7 -40 -7 c-55 -9 -83 -26 -135 -83 -24 -27 -57 -55 -73 -62 l-29 -12 45 -12
c113 -28 201 8 250 104 14 28 15 27 10 -36 -7 -89 10 -145 59 -194 l41 -40 9
25 c20 54 11 177 -19 248 -14 33 -13 33 38 -18 81 -81 166 -109 234 -78 31 14
32 24 3 32 -13 3 -45 26 -73 51 -27 25 -56 45 -62 45 -7 0 -13 4 -13 9 0 6 10
8 23 5 38 -7 84 15 111 54 14 21 26 40 26 43 0 2 -46 3 -103 3 -101 -2 -131
-8 -174 -40 l-23 -16 16 53 c16 54 35 92 61 118 17 17 12 33 -11 37 -11 2 -32
-18 -61 -57z"/>
<path d="M385 1191 c-171 -57 -258 -194 -272 -426 -7 -119 8 -191 64 -305 47
-99 166 -219 270 -273 356 -186 802 -10 909 358 22 78 25 93 31 199 12 200
-56 345 -193 411 l-48 23 -11 -21 c-5 -11 -25 -27 -42 -36 -18 -9 -33 -18 -33
-22 0 -9 89 -49 110 -49 17 0 18 -3 7 -33 -28 -78 -74 -107 -160 -103 -32 2
-63 8 -69 14 -22 22 -33 12 -35 -29 -4 -62 -21 -116 -46 -145 -22 -26 -25 -26
-61 -13 -51 19 -91 61 -118 126 -23 57 -24 58 -63 43 -82 -31 -198 -13 -260
41 -47 42 -45 60 11 83 25 10 65 37 88 58 l41 40 -25 13 c-14 7 -29 24 -35 38
l-10 24 -50 -16z"/>
</g>
</svg>
